<mxfile host="app.diagrams.net" agent="Mozilla/5.0 (Windows NT 10.0; Win64; x64) AppleWebKit/537.36 (KHTML, like Gecko) Chrome/135.0.0.0 Safari/537.36 Edg/135.0.0.0" version="26.2.9">
  <diagram name="PÃ¡gina-1" id="iS5HOhEgQ37k6hemtx-q">
    <mxGraphModel dx="1422" dy="673" grid="1" gridSize="10" guides="1" tooltips="1" connect="1" arrows="1" fold="1" page="1" pageScale="1" pageWidth="827" pageHeight="1169" math="0" shadow="0">
      <root>
        <mxCell id="0" />
        <mxCell id="1" parent="0" />
        <mxCell id="3GG9XiNw5ah-fZowqXtn-1" value="Asistente" style="shape=umlActor;verticalLabelPosition=bottom;verticalAlign=top;html=1;outlineConnect=0;" vertex="1" parent="1">
          <mxGeometry x="100" y="130" width="30" height="60" as="geometry" />
        </mxCell>
        <mxCell id="3GG9XiNw5ah-fZowqXtn-4" value="" style="ellipse;whiteSpace=wrap;html=1;" vertex="1" parent="1">
          <mxGeometry x="290" y="120" width="120" height="80" as="geometry" />
        </mxCell>
        <mxCell id="3GG9XiNw5ah-fZowqXtn-5" value="" style="endArrow=none;html=1;rounded=0;entryX=0;entryY=0.5;entryDx=0;entryDy=0;" edge="1" parent="1" target="3GG9XiNw5ah-fZowqXtn-4">
          <mxGeometry width="50" height="50" relative="1" as="geometry">
            <mxPoint x="140" y="160" as="sourcePoint" />
            <mxPoint x="440" y="320" as="targetPoint" />
          </mxGeometry>
        </mxCell>
        <mxCell id="3GG9XiNw5ah-fZowqXtn-7" value="Actividades" style="text;html=1;align=center;verticalAlign=middle;whiteSpace=wrap;rounded=0;" vertex="1" parent="1">
          <mxGeometry x="320" y="145" width="60" height="30" as="geometry" />
        </mxCell>
        <mxCell id="3GG9XiNw5ah-fZowqXtn-8" value="" style="endArrow=classic;html=1;rounded=0;exitX=1;exitY=0;exitDx=0;exitDy=0;entryX=0;entryY=1;entryDx=0;entryDy=0;" edge="1" parent="1" source="3GG9XiNw5ah-fZowqXtn-4" target="3GG9XiNw5ah-fZowqXtn-9">
          <mxGeometry width="50" height="50" relative="1" as="geometry">
            <mxPoint x="400" y="130" as="sourcePoint" />
            <mxPoint x="450" y="80" as="targetPoint" />
          </mxGeometry>
        </mxCell>
        <mxCell id="3GG9XiNw5ah-fZowqXtn-9" value="" style="ellipse;whiteSpace=wrap;html=1;" vertex="1" parent="1">
          <mxGeometry x="420" width="120" height="80" as="geometry" />
        </mxCell>
        <mxCell id="3GG9XiNw5ah-fZowqXtn-10" value="Registrar Reportes" style="text;html=1;align=center;verticalAlign=middle;whiteSpace=wrap;rounded=0;" vertex="1" parent="1">
          <mxGeometry x="450" y="25" width="60" height="30" as="geometry" />
        </mxCell>
        <mxCell id="3GG9XiNw5ah-fZowqXtn-11" value="" style="ellipse;whiteSpace=wrap;html=1;" vertex="1" parent="1">
          <mxGeometry x="480" y="120" width="120" height="80" as="geometry" />
        </mxCell>
        <mxCell id="3GG9XiNw5ah-fZowqXtn-12" value="Actualizar o editar registros" style="text;html=1;align=center;verticalAlign=middle;whiteSpace=wrap;rounded=0;" vertex="1" parent="1">
          <mxGeometry x="510" y="145" width="60" height="30" as="geometry" />
        </mxCell>
        <mxCell id="3GG9XiNw5ah-fZowqXtn-13" value="" style="endArrow=classic;html=1;rounded=0;exitX=1;exitY=0.5;exitDx=0;exitDy=0;entryX=0;entryY=0.5;entryDx=0;entryDy=0;" edge="1" parent="1" source="3GG9XiNw5ah-fZowqXtn-4" target="3GG9XiNw5ah-fZowqXtn-11">
          <mxGeometry width="50" height="50" relative="1" as="geometry">
            <mxPoint x="402" y="142" as="sourcePoint" />
            <mxPoint x="470" y="160" as="targetPoint" />
          </mxGeometry>
        </mxCell>
      </root>
    </mxGraphModel>
  </diagram>
</mxfile>
